<svg id="logo" xmlns="http://www.w3.org/2000/svg" width="337.8" height="46.29" viewBox="0 0 337.8 46.29"><defs><style>.cls-1{fill:#929293;}.cls-2{fill:#d8263c;}</style></defs><g id="partnership"><g id="noble-desktop"><g id="desktop"><path class="cls-1" d="M295.84,35v8.64h-5.26a1.36,1.36,0,0,1-1.37-1.36V38.49a1.36,1.36,0,0,1,1.37-1.36h4.34V35Zm-1.36,7.72a.45.45,0,0,0,.44-.44V38.49a.44.44,0,0,0-.44-.44h-3.9a.44.44,0,0,0-.44.44v3.79a.45.45,0,0,0,.44.44Z"/><path class="cls-1" d="M303.41,38.49v2.35H297.7v1.44a.45.45,0,0,0,.44.44h5.27v.92h-5.27a1.36,1.36,0,0,1-1.36-1.36V38.49a1.36,1.36,0,0,1,1.36-1.36H302A1.36,1.36,0,0,1,303.41,38.49Zm-.93,1.43V38.49a.44.44,0,0,0-.44-.44h-3.9a.44.44,0,0,0-.44.44v1.43Z"/><path class="cls-1" d="M311.14,38.58h-.93v-.09a.45.45,0,0,0-.44-.44h-3.9a.44.44,0,0,0-.44.44v1a.44.44,0,0,0,.44.43h3.9a1.36,1.36,0,0,1,1.37,1.36v1a1.36,1.36,0,0,1-1.37,1.36h-3.9a1.36,1.36,0,0,1-1.36-1.36v-.09h.92v.09a.45.45,0,0,0,.44.44h3.9a.46.46,0,0,0,.44-.44v-1a.45.45,0,0,0-.44-.44h-3.9a1.35,1.35,0,0,1-1.36-1.35v-1a1.36,1.36,0,0,1,1.36-1.36h3.9a1.36,1.36,0,0,1,1.37,1.36Z"/><path class="cls-1" d="M319.72,38.05v4.23a.45.45,0,0,0,.44.44h2.38v.92h-2.38a1.36,1.36,0,0,1-1.36-1.36V35h.92v2.13h2.82v.92Z"/><path class="cls-1" d="M328.64,37.13A1.36,1.36,0,0,1,330,38.49v3.79a1.36,1.36,0,0,1-1.37,1.36h-3.91a1.35,1.35,0,0,1-1.35-1.36V38.49a1.35,1.35,0,0,1,1.35-1.36Zm-3.91.92a.44.44,0,0,0-.43.44v3.79a.45.45,0,0,0,.43.44h3.91a.44.44,0,0,0,.43-.44V38.49a.44.44,0,0,0-.43-.44Z"/><path class="cls-1" d="M337.8,38.49v3.79a1.36,1.36,0,0,1-1.36,1.36h-4.35v2.57h-.92V37.13h5.27A1.36,1.36,0,0,1,337.8,38.49Zm-.92,0a.44.44,0,0,0-.44-.44h-3.9a.45.45,0,0,0-.45.44v3.79a.45.45,0,0,0,.45.44h3.9a.45.45,0,0,0,.44-.44Z"/><polygon class="cls-1" points="315.15 40.2 317.94 37.13 316.73 37.13 314.17 39.92 313.02 39.92 313.02 35 312.1 35 312.1 43.63 313.02 43.63 313.02 40.84 314.51 40.84 317.06 43.63 318.26 43.63 315.15 40.2"/></g><g id="noble"><path class="cls-1" d="M259.71,38.76v4.88H258V38.85h-3.16v4.79h-1.72V37.13h5A1.63,1.63,0,0,1,259.71,38.76Z"/><path class="cls-1" d="M265.58,37.13a1.64,1.64,0,0,1,1.63,1.63V42a1.64,1.64,0,0,1-1.63,1.63h-3.34A1.65,1.65,0,0,1,260.61,42V38.76a1.64,1.64,0,0,1,1.63-1.63Zm-3.25,4.79h3.16V38.85h-3.16Z"/><path class="cls-1" d="M274.89,38.76V42a1.64,1.64,0,0,1-1.63,1.63h-5V35H270v2.13h3.25A1.64,1.64,0,0,1,274.89,38.76ZM270,41.92h3.16V38.85H270Z"/><path class="cls-1" d="M277.48,35v6.93h1.31v1.72h-1.41A1.65,1.65,0,0,1,275.75,42V35Z"/><path class="cls-1" d="M286.23,38.76v2.49h-4.88v.67h4.88v1.72h-5A1.65,1.65,0,0,1,279.63,42V38.76a1.64,1.64,0,0,1,1.63-1.63h3.34A1.64,1.64,0,0,1,286.23,38.76Zm-1.72,1v-.89h-3.16v.89Z"/></g></g><g id="in-partnership"><path class="cls-1" d="M153.14,36.59v7H152v-7Z"/><path class="cls-1" d="M158.76,38.23a1.94,1.94,0,0,1,.82.81,2.74,2.74,0,0,1,.29,1.3v3.3h-1.14V40.51a1.63,1.63,0,0,0-.38-1.15,1.51,1.51,0,0,0-2,0,1.58,1.58,0,0,0-.38,1.15v3.13h-1.16V38.05h1.16v.64a2,2,0,0,1,.72-.54,2.32,2.32,0,0,1,.94-.19A2.53,2.53,0,0,1,158.76,38.23Z"/><path class="cls-1" d="M166.14,38.22a2.49,2.49,0,0,1,1.14-.26,2.59,2.59,0,0,1,1.34.36,2.48,2.48,0,0,1,.94,1,3.12,3.12,0,0,1,.35,1.49,3.19,3.19,0,0,1-.35,1.5,2.63,2.63,0,0,1-.94,1,2.6,2.6,0,0,1-1.34.37,2.44,2.44,0,0,1-1.13-.26,2.5,2.5,0,0,1-.81-.65v3.47h-1.16V38.05h1.16v.82A2.28,2.28,0,0,1,166.14,38.22Zm2.35,1.6a1.55,1.55,0,0,0-.63-.64A1.61,1.61,0,0,0,167,39a1.75,1.75,0,0,0-.83.22,1.71,1.71,0,0,0-.63.65,2,2,0,0,0-.23,1,2.06,2.06,0,0,0,.23,1,1.71,1.71,0,0,0,.63.65,1.64,1.64,0,0,0,.83.22,1.53,1.53,0,0,0,.83-.23,1.61,1.61,0,0,0,.63-.66,2.07,2.07,0,0,0,.24-1A2,2,0,0,0,168.49,39.82Z"/><path class="cls-1" d="M171.12,39.33a2.51,2.51,0,0,1,.95-1,2.59,2.59,0,0,1,1.34-.36,2.35,2.35,0,0,1,1.15.26,2.26,2.26,0,0,1,.78.64v-.81h1.17v5.59h-1.17V42.8a2.11,2.11,0,0,1-.8.66,2.41,2.41,0,0,1-1.15.27,2.53,2.53,0,0,1-1.32-.37,2.65,2.65,0,0,1-.95-1,3.19,3.19,0,0,1-.35-1.5A3.12,3.12,0,0,1,171.12,39.33Zm4,.5a1.62,1.62,0,0,0-.62-.65,1.72,1.72,0,0,0-.83-.22,1.59,1.59,0,0,0-.83.22,1.62,1.62,0,0,0-.63.64,2.08,2.08,0,0,0-.23,1,2.18,2.18,0,0,0,.23,1,1.67,1.67,0,0,0,.63.66,1.55,1.55,0,0,0,.83.23,1.62,1.62,0,0,0,1.45-.87,2.07,2.07,0,0,0,.24-1A2,2,0,0,0,175.1,39.83Z"/><path class="cls-1" d="M180,38.2a2,2,0,0,1,1-.24v1.19h-.29a1.39,1.39,0,0,0-1,.35,1.62,1.62,0,0,0-.35,1.2v2.94h-1.16V38.05h1.16v.81A1.77,1.77,0,0,1,180,38.2Z"/><path class="cls-1" d="M183.47,39v3.09a.62.62,0,0,0,.15.46.75.75,0,0,0,.5.13h.71v1h-.91a1.79,1.79,0,0,1-1.2-.37,1.53,1.53,0,0,1-.41-1.19V39h-.66v-.94h.66V36.66h1.16v1.39h1.36V39Z"/><path class="cls-1" d="M190,38.23a1.86,1.86,0,0,1,.81.81,2.63,2.63,0,0,1,.3,1.3v3.3H190V40.51a1.62,1.62,0,0,0-.37-1.15,1.33,1.33,0,0,0-1-.4,1.36,1.36,0,0,0-1,.4,1.63,1.63,0,0,0-.38,1.15v3.13H186V38.05h1.15v.64a2,2,0,0,1,.73-.54,2.29,2.29,0,0,1,.94-.19A2.53,2.53,0,0,1,190,38.23Z"/><path class="cls-1" d="M197.76,41.27h-4.27a1.53,1.53,0,0,0,.5,1.08,1.56,1.56,0,0,0,1.09.4A1.36,1.36,0,0,0,196.4,42h1.25a2.48,2.48,0,0,1-.92,1.26,2.68,2.68,0,0,1-1.65.5,2.84,2.84,0,0,1-1.43-.36,2.58,2.58,0,0,1-1-1,3.07,3.07,0,0,1-.36-1.51,3.22,3.22,0,0,1,.35-1.52,2.6,2.6,0,0,1,1-1,3,3,0,0,1,1.45-.35,2.83,2.83,0,0,1,1.41.34,2.45,2.45,0,0,1,1,1,3,3,0,0,1,.34,1.43A3.32,3.32,0,0,1,197.76,41.27Zm-1.17-.93a1.29,1.29,0,0,0-.45-1,1.64,1.64,0,0,0-1.11-.39,1.48,1.48,0,0,0-1,.38,1.59,1.59,0,0,0-.51,1Z"/><path class="cls-1" d="M200.87,38.2a2,2,0,0,1,1-.24v1.19h-.29a1.43,1.43,0,0,0-1,.35,1.67,1.67,0,0,0-.35,1.2v2.94H199V38.05h1.15v.81A1.79,1.79,0,0,1,200.87,38.2Z"/><path class="cls-1" d="M203.88,43.49a2.1,2.1,0,0,1-.83-.65,1.6,1.6,0,0,1-.32-.92h1.19a.85.85,0,0,0,.34.6,1.31,1.31,0,0,0,.78.23,1.34,1.34,0,0,0,.75-.18.58.58,0,0,0,.27-.49.48.48,0,0,0-.3-.46,5.46,5.46,0,0,0-.94-.34,7.91,7.91,0,0,1-1-.33,1.85,1.85,0,0,1-.68-.5,1.26,1.26,0,0,1-.29-.88,1.43,1.43,0,0,1,.26-.82,1.82,1.82,0,0,1,.76-.58A2.81,2.81,0,0,1,205,38a2.32,2.32,0,0,1,1.53.48,1.74,1.74,0,0,1,.63,1.31H206a.83.83,0,0,0-.3-.6,1.18,1.18,0,0,0-.74-.22,1.22,1.22,0,0,0-.7.17.56.56,0,0,0-.25.46.48.48,0,0,0,.17.37.92.92,0,0,0,.39.24l.69.22a7.79,7.79,0,0,1,1,.33,1.9,1.9,0,0,1,.67.49,1.34,1.34,0,0,1,.3.86,1.44,1.44,0,0,1-.27.86,1.68,1.68,0,0,1-.74.58,2.65,2.65,0,0,1-1.13.22A2.8,2.8,0,0,1,203.88,43.49Z"/><path class="cls-1" d="M212.58,38.23a1.93,1.93,0,0,1,.79.81,2.74,2.74,0,0,1,.29,1.3v3.3h-1.15V40.51a1.62,1.62,0,0,0-.37-1.15,1.34,1.34,0,0,0-1-.4,1.36,1.36,0,0,0-1,.4,1.63,1.63,0,0,0-.38,1.15v3.13h-1.15V36.13h1.15V38.7a2,2,0,0,1,.75-.55,2.46,2.46,0,0,1,1-.19A2.4,2.4,0,0,1,212.58,38.23Z"/><path class="cls-1" d="M215.29,37.1a.74.74,0,0,1-.21-.53.72.72,0,0,1,.74-.74.73.73,0,0,1,.73.74.71.71,0,0,1-.22.53.69.69,0,0,1-.51.21A.72.72,0,0,1,215.29,37.1Zm1.09.95v5.59h-1.15V38.05Z"/><path class="cls-1" d="M220,38.22a2.57,2.57,0,0,1,3.43,1.11,3.12,3.12,0,0,1,.34,1.49,3.19,3.19,0,0,1-.34,1.5,2.65,2.65,0,0,1-.95,1,2.54,2.54,0,0,1-1.33.37,2.46,2.46,0,0,1-1.14-.26,2.5,2.5,0,0,1-.81-.65v3.47H218V38.05h1.15v.82A2.48,2.48,0,0,1,220,38.22Zm2.36,1.6a1.62,1.62,0,0,0-.63-.64,1.64,1.64,0,0,0-.83-.22,1.65,1.65,0,0,0-1.46.87,2,2,0,0,0-.24,1,2.07,2.07,0,0,0,.24,1,1.71,1.71,0,0,0,.63.65,1.61,1.61,0,0,0,.83.22,1.55,1.55,0,0,0,.83-.23,1.67,1.67,0,0,0,.63-.66,2.07,2.07,0,0,0,.24-1A2,2,0,0,0,222.32,39.82Z"/><path class="cls-1" d="M235.22,38.05l-1.73,5.59h-1.22l-1.12-4.13L230,43.64H228.8l-1.74-5.59h1.18l1.16,4.49,1.19-4.49h1.21l1.13,4.47,1.16-4.47Z"/><path class="cls-1" d="M236.25,37.1a.71.71,0,0,1-.22-.53.74.74,0,0,1,1.26-.53.72.72,0,0,1,.21.53.74.74,0,0,1-.21.53.75.75,0,0,1-1,0Zm1.09.95v5.59h-1.15V38.05Z"/><path class="cls-1" d="M240.31,39v3.09a.62.62,0,0,0,.15.46.73.73,0,0,0,.5.13h.71v1h-.91a1.79,1.79,0,0,1-1.2-.37,1.49,1.49,0,0,1-.41-1.19V39h-.66v-.94h.66V36.66h1.16v1.39h1.36V39Z"/><path class="cls-1" d="M246.87,38.23a2,2,0,0,1,.79.81,2.74,2.74,0,0,1,.29,1.3v3.3H246.8V40.51a1.62,1.62,0,0,0-.37-1.15,1.53,1.53,0,0,0-2.06,0,1.63,1.63,0,0,0-.38,1.15v3.13h-1.15V36.13H244V38.7a2,2,0,0,1,.75-.55,2.46,2.46,0,0,1,1-.19A2.4,2.4,0,0,1,246.87,38.23Z"/></g></g><g id="practical-programming"><path class="cls-1" d="M42.32,14.61a5.26,5.26,0,0,1-2.22,2.1,7.74,7.74,0,0,1-3.71.8H33.65V24H29.24V5.9h7.15a8.12,8.12,0,0,1,3.66.75,5.05,5.05,0,0,1,2.24,2.06,6,6,0,0,1,.75,3A5.86,5.86,0,0,1,42.32,14.61Zm-4.39-1.2a2.2,2.2,0,0,0,.62-1.68,2.2,2.2,0,0,0-.62-1.68,2.65,2.65,0,0,0-1.88-.59h-2.4V14h2.4A2.6,2.6,0,0,0,37.93,13.41Z"/><path class="cls-1" d="M51.69,10.14a5,5,0,0,1,2.58-.68v4.67H53.06a3.74,3.74,0,0,0-2.48.71,3.17,3.17,0,0,0-.83,2.49V24H45.34V9.62h4.41V12A5.8,5.8,0,0,1,51.69,10.14Z"/><path class="cls-1" d="M56.35,12.89a6.31,6.31,0,0,1,2.28-2.58,6,6,0,0,1,3.23-.9,5.6,5.6,0,0,1,2.67.62,4.63,4.63,0,0,1,1.77,1.62v-2h4.41V24H66.3V22a4.72,4.72,0,0,1-1.8,1.62,5.43,5.43,0,0,1-2.67.62,5.85,5.85,0,0,1-3.2-.91,6.34,6.34,0,0,1-2.28-2.61,8.69,8.69,0,0,1-.84-3.91A8.61,8.61,0,0,1,56.35,12.89Zm9,1.32a3.08,3.08,0,0,0-4.46,0A3.52,3.52,0,0,0,60,16.79a3.63,3.63,0,0,0,.92,2.62,2.93,2.93,0,0,0,2.23,1,3,3,0,0,0,2.23-1,3.59,3.59,0,0,0,.92-2.6A3.63,3.63,0,0,0,65.38,14.21Z"/><path class="cls-1" d="M74,12.89a6.4,6.4,0,0,1,2.55-2.58,7.71,7.71,0,0,1,3.76-.9,7.15,7.15,0,0,1,4.53,1.42,6.67,6.67,0,0,1,2.38,4H82.48a2.26,2.26,0,0,0-2.3-1.65,2.33,2.33,0,0,0-1.94.94,4.38,4.38,0,0,0-.72,2.7,4.33,4.33,0,0,0,.72,2.69,2.33,2.33,0,0,0,1.94.95,2.27,2.27,0,0,0,2.3-1.66h4.69a6.7,6.7,0,0,1-2.4,4,7.06,7.06,0,0,1-4.51,1.44,7.71,7.71,0,0,1-3.76-.9A6.34,6.34,0,0,1,74,20.74,8.08,8.08,0,0,1,73,16.82,8.09,8.09,0,0,1,74,12.89Z"/><path class="cls-1" d="M97.55,20.27V24H95.3a5.47,5.47,0,0,1-3.74-1.18A4.86,4.86,0,0,1,90.22,19V13.28H88.46V9.62h1.76V6.11h4.41V9.62h2.89v3.66H94.63v5.78a1.24,1.24,0,0,0,.31.93,1.51,1.51,0,0,0,1,.28Z"/><path class="cls-1" d="M100.32,7.43a2.19,2.19,0,0,1-.73-1.69A2.23,2.23,0,0,1,100.32,4a2.68,2.68,0,0,1,1.9-.69,2.62,2.62,0,0,1,1.87.69,2.24,2.24,0,0,1,.74,1.71,2.2,2.2,0,0,1-.74,1.69,2.62,2.62,0,0,1-1.87.69A2.68,2.68,0,0,1,100.32,7.43Zm4.09,2.19V24H100V9.62Z"/><path class="cls-1" d="M107.65,12.89a6.36,6.36,0,0,1,2.56-2.58,7.65,7.65,0,0,1,3.75-.9,7.11,7.11,0,0,1,4.53,1.42,6.69,6.69,0,0,1,2.39,4h-4.7a2.25,2.25,0,0,0-2.29-1.65,2.31,2.31,0,0,0-1.94.94,4.38,4.38,0,0,0-.72,2.7,4.33,4.33,0,0,0,.72,2.69,2.32,2.32,0,0,0,1.94.95,2.26,2.26,0,0,0,2.29-1.66h4.7a6.8,6.8,0,0,1-2.4,4A7.09,7.09,0,0,1,114,24.22a7.65,7.65,0,0,1-3.75-.9,6.3,6.3,0,0,1-2.56-2.58,8.08,8.08,0,0,1-.91-3.92A8.09,8.09,0,0,1,107.65,12.89Z"/><path class="cls-1" d="M123.19,12.89a6.31,6.31,0,0,1,2.28-2.58,6,6,0,0,1,3.23-.9,5.6,5.6,0,0,1,2.67.62,4.49,4.49,0,0,1,1.77,1.62v-2h4.41V24h-4.41V22a4.72,4.72,0,0,1-1.8,1.62,5.43,5.43,0,0,1-2.67.62,5.87,5.87,0,0,1-3.2-.91,6.34,6.34,0,0,1-2.28-2.61,8.69,8.69,0,0,1-.84-3.91A8.61,8.61,0,0,1,123.19,12.89Zm9,1.32a3.08,3.08,0,0,0-4.46,0,3.56,3.56,0,0,0-.92,2.59,3.67,3.67,0,0,0,.92,2.62,3.06,3.06,0,0,0,4.46,0,3.59,3.59,0,0,0,.92-2.6A3.63,3.63,0,0,0,132.22,14.21Z"/><path class="cls-1" d="M145.16,4.92V24h-4.41V4.92Z"/><path class="cls-1" d="M166.92,14.61a5.26,5.26,0,0,1-2.22,2.1,7.76,7.76,0,0,1-3.72.8h-2.73V24h-4.41V5.9H161a8.14,8.14,0,0,1,3.67.75,5.05,5.05,0,0,1,2.24,2.06,6,6,0,0,1,.75,3A5.86,5.86,0,0,1,166.92,14.61Zm-4.39-1.2a2.2,2.2,0,0,0,.62-1.68,2.2,2.2,0,0,0-.62-1.68,2.65,2.65,0,0,0-1.88-.59h-2.4V14h2.4A2.6,2.6,0,0,0,162.53,13.41Z"/><path class="cls-1" d="M176.29,10.14a5,5,0,0,1,2.58-.68v4.67h-1.21a3.73,3.73,0,0,0-2.48.71,3.17,3.17,0,0,0-.83,2.49V24h-4.41V9.62h4.41V12A5.8,5.8,0,0,1,176.29,10.14Z"/><path class="cls-1" d="M183.73,23.32a6.58,6.58,0,0,1-2.65-2.58,7.68,7.68,0,0,1-1-3.92,7.57,7.57,0,0,1,1-3.91,6.64,6.64,0,0,1,2.68-2.6,8.56,8.56,0,0,1,7.64,0,6.66,6.66,0,0,1,2.69,2.6,7.67,7.67,0,0,1,1,3.91,7.51,7.51,0,0,1-1,3.91,6.69,6.69,0,0,1-2.71,2.59,8.11,8.11,0,0,1-3.83.9A8,8,0,0,1,183.73,23.32Zm6-3.85a3.69,3.69,0,0,0,.89-2.65,3.74,3.74,0,0,0-.87-2.66,2.93,2.93,0,0,0-4.27,0,3.77,3.77,0,0,0-.85,2.67,3.81,3.81,0,0,0,.84,2.65,2.71,2.71,0,0,0,2.1.93A2.9,2.9,0,0,0,189.7,19.47Z"/><path class="cls-1" d="M205.57,10a4.63,4.63,0,0,1,1.77,1.62v-2h4.41V24a8,8,0,0,1-.79,3.6,5.94,5.94,0,0,1-2.4,2.57,7.71,7.71,0,0,1-4,.95,8.33,8.33,0,0,1-5.19-1.51,5.7,5.7,0,0,1-2.27-4.09h4.36a2.14,2.14,0,0,0,1,1.31,3.56,3.56,0,0,0,1.91.47,3,3,0,0,0,2.18-.78,3.41,3.41,0,0,0,.82-2.52V22a4.9,4.9,0,0,1-1.79,1.64,5.35,5.35,0,0,1-2.65.63,5.9,5.9,0,0,1-3.23-.91,6.34,6.34,0,0,1-2.28-2.61,8.69,8.69,0,0,1-.84-3.91,8.61,8.61,0,0,1,.84-3.9,6.31,6.31,0,0,1,2.28-2.58,6,6,0,0,1,3.23-.9A5.6,5.6,0,0,1,205.57,10Zm.85,4.18a3,3,0,0,0-2.23-1,3,3,0,0,0-2.24.95,3.56,3.56,0,0,0-.91,2.59,3.67,3.67,0,0,0,.91,2.62,3.07,3.07,0,0,0,4.47,0,3.59,3.59,0,0,0,.92-2.6A3.63,3.63,0,0,0,206.42,14.21Z"/><path class="cls-1" d="M221.3,10.14a5,5,0,0,1,2.58-.68v4.67h-1.22a3.71,3.71,0,0,0-2.47.71,3.17,3.17,0,0,0-.83,2.49V24H215V9.62h4.41V12A5.8,5.8,0,0,1,221.3,10.14Z"/><path class="cls-1" d="M226,12.89a6.24,6.24,0,0,1,2.28-2.58,6,6,0,0,1,3.23-.9,5.6,5.6,0,0,1,2.67.62,4.53,4.53,0,0,1,1.76,1.62v-2h4.42V24H235.9V22a4.69,4.69,0,0,1-1.79,1.62,5.48,5.48,0,0,1-2.67.62,5.85,5.85,0,0,1-3.2-.91A6.27,6.27,0,0,1,226,20.7a8.69,8.69,0,0,1-.84-3.91A8.61,8.61,0,0,1,226,12.89Zm9,1.32a3,3,0,0,0-2.23-1,3,3,0,0,0-2.24.95,3.56,3.56,0,0,0-.91,2.59,3.67,3.67,0,0,0,.91,2.62,3.07,3.07,0,0,0,4.47,0,3.58,3.58,0,0,0,.91-2.6A3.62,3.62,0,0,0,235,14.21Z"/><path class="cls-1" d="M266.16,11.09a6.17,6.17,0,0,1,1.59,4.51V24h-4.39V16.2a3,3,0,0,0-.73-2.16,3.08,3.08,0,0,0-4.05,0,3,3,0,0,0-.74,2.16V24h-4.39V16.2a3,3,0,0,0-.73-2.16,3.08,3.08,0,0,0-4.05,0,3,3,0,0,0-.74,2.16V24h-4.41V9.62h4.41v1.8A4.69,4.69,0,0,1,249.69,10a5.51,5.51,0,0,1,2.45-.53,5.9,5.9,0,0,1,2.9.7,5,5,0,0,1,2,2,5.82,5.82,0,0,1,2-1.93,5.5,5.5,0,0,1,2.81-.75A5.66,5.66,0,0,1,266.16,11.09Z"/><path class="cls-1" d="M293.49,11.09a6.17,6.17,0,0,1,1.59,4.51V24h-4.39V16.2A3,3,0,0,0,290,14a3.08,3.08,0,0,0-4,0,3,3,0,0,0-.74,2.16V24h-4.39V16.2a3,3,0,0,0-.73-2.16A3.08,3.08,0,0,0,276,14a3,3,0,0,0-.74,2.16V24h-4.41V9.62h4.41v1.8A4.69,4.69,0,0,1,277,10a5.54,5.54,0,0,1,2.45-.53,5.9,5.9,0,0,1,2.9.7,5,5,0,0,1,2,2,5.82,5.82,0,0,1,2-1.93,5.5,5.5,0,0,1,2.81-.75A5.66,5.66,0,0,1,293.49,11.09Z"/><path class="cls-1" d="M298.5,7.43a2.19,2.19,0,0,1-.73-1.69A2.23,2.23,0,0,1,298.5,4a2.92,2.92,0,0,1,3.77,0A2.23,2.23,0,0,1,303,5.74a2.19,2.19,0,0,1-.73,1.69,2.92,2.92,0,0,1-3.77,0Zm4.09,2.19V24h-4.41V9.62Z"/><path class="cls-1" d="M318.61,11.1a6.41,6.41,0,0,1,1.51,4.5V24h-4.39V16.2A3.15,3.15,0,0,0,315,14a2.94,2.94,0,0,0-4,0,3.15,3.15,0,0,0-.75,2.25V24h-4.41V9.62h4.41v1.91A4.64,4.64,0,0,1,312,10a5.76,5.76,0,0,1,2.56-.56A5.25,5.25,0,0,1,318.61,11.1Z"/><path class="cls-1" d="M331.33,10a4.63,4.63,0,0,1,1.77,1.62v-2h4.41V24a8,8,0,0,1-.79,3.6,5.94,5.94,0,0,1-2.4,2.57,7.71,7.71,0,0,1-4,.95,8.35,8.35,0,0,1-5.19-1.51,5.7,5.7,0,0,1-2.27-4.09h4.36a2.14,2.14,0,0,0,1,1.31,3.56,3.56,0,0,0,1.91.47,3,3,0,0,0,2.18-.78A3.41,3.41,0,0,0,333.1,24V22a5,5,0,0,1-1.78,1.64,5.42,5.42,0,0,1-2.66.63,5.9,5.9,0,0,1-3.23-.91,6.34,6.34,0,0,1-2.28-2.61,8.69,8.69,0,0,1-.84-3.91,8.61,8.61,0,0,1,.84-3.9,6.31,6.31,0,0,1,2.28-2.58,6,6,0,0,1,3.23-.9A5.6,5.6,0,0,1,331.33,10Zm.85,4.18a3.08,3.08,0,0,0-4.46,0,3.52,3.52,0,0,0-.92,2.59,3.63,3.63,0,0,0,.92,2.62,2.93,2.93,0,0,0,2.23,1,3,3,0,0,0,2.23-1,3.59,3.59,0,0,0,.92-2.6A3.63,3.63,0,0,0,332.18,14.21Z"/></g><g id="icon"><path class="cls-2" d="M5.39,24.43l-.92,2H2A6.39,6.39,0,0,1,0,21.7a8.8,8.8,0,0,1,2.2-4.8A17,17,0,0,0,5.39,24.43Z"/><path class="cls-2" d="M16.59,21.7a6.39,6.39,0,0,1-2,4.71H12.12l-.92-2a17.11,17.11,0,0,0,3.2-7.53A8.77,8.77,0,0,1,16.59,21.7Z"/><path class="cls-2" d="M12.16,5.1H4.43A20.2,20.2,0,0,1,8.3,0,20.4,20.4,0,0,1,12.16,5.1Z"/><path class="cls-2" d="M12.48,5.74H4.11A18.11,18.11,0,0,0,2.55,13.4a17,17,0,0,0,4,11.49H10A17,17,0,0,0,14,13.4,18,18,0,0,0,12.48,5.74ZM8.3,12.44a2.23,2.23,0,1,1,2.23-2.23A2.23,2.23,0,0,1,8.3,12.44Z"/><path class="cls-2" d="M8.27,29.74A3.22,3.22,0,0,1,7.1,30.83a3.4,3.4,0,0,1-1.64.39l-1.92,0a2.31,2.31,0,0,0-.83.12,1.21,1.21,0,0,0-.41.2,1,1,0,0,0-.18.18h0a1.26,1.26,0,0,0-.23.79v2H0V32.83A7.33,7.33,0,0,1,0,32a6.58,6.58,0,0,1,.18-.82A3.28,3.28,0,0,1,1,29.87a1.12,1.12,0,0,1,.2-.18,2.83,2.83,0,0,1,1.2-.64A1.87,1.87,0,0,1,2.67,29a4.28,4.28,0,0,1,.75-.09l.22,0h.1l1.38,0,.58,0A2.05,2.05,0,0,0,7,28.6a1.13,1.13,0,0,0,.39-1V26.8H9.24v.85a1.11,1.11,0,0,0,.4,1,2,2,0,0,0,1.25.31l.58,0,1.38,0H13l.22,0a4.28,4.28,0,0,1,.75.09,1.67,1.67,0,0,1,.32.08,2.83,2.83,0,0,1,1.2.64,1.12,1.12,0,0,1,.2.18,3.28,3.28,0,0,1,.73,1.31,6.58,6.58,0,0,1,.18.82,7.33,7.33,0,0,1,0,.83v1.63H14.71v-2a1.26,1.26,0,0,0-.23-.79h0a1,1,0,0,0-.18-.18,1.21,1.21,0,0,0-.41-.2,2.27,2.27,0,0,0-.83-.12l-1.92,0a3.33,3.33,0,0,1-1.63-.39,3.17,3.17,0,0,1-1.18-1.09Z"/></g></svg>